<?xml version="1.0" encoding="UTF-8" standalone="no"?>
<!DOCTYPE svg PUBLIC "-//W3C//DTD SVG 1.1//EN"
 "http://www.w3.org/Graphics/SVG/1.1/DTD/svg11.dtd">
<!-- Generated by graphviz version 2.43.0 (0)
 -->
<!-- Title: G Pages: 1 -->
<svg width="527pt" height="152pt"
 viewBox="0.00 0.00 527.00 152.00" xmlns="http://www.w3.org/2000/svg" xmlns:xlink="http://www.w3.org/1999/xlink">
<g id="graph0" class="graph" transform="scale(1 1) rotate(0) translate(4 148)">
<title>G</title>
<polygon fill="white" stroke="transparent" points="-4,4 -4,-148 523,-148 523,4 -4,4"/>
<!-- data.aws_ami.ami -->
<g id="node1" class="node">
<title>data.aws_ami.ami</title>
<polygon fill="none" stroke="black" points="230,-144 89,-144 89,-108 230,-108 230,-144"/>
<text text-anchor="middle" x="159.5" y="-122.3" font-family="sans-serif" font-size="14.00">data.aws_ami.ami</text>
</g>
<!-- aws_instance.newvm -->
<g id="node2" class="node">
<title>aws_instance.newvm</title>
<polygon fill="none" stroke="black" points="519,-90 355,-90 355,-54 519,-54 519,-90"/>
<text text-anchor="middle" x="437" y="-68.3" font-family="sans-serif" font-size="14.00">aws_instance.newvm</text>
</g>
<!-- aws_instance.newvm&#45;&gt;data.aws_ami.ami -->
<g id="edge1" class="edge">
<title>aws_instance.newvm&#45;&gt;data.aws_ami.ami</title>
<path fill="none" stroke="black" d="M360.93,-90C347.02,-93.15 332.59,-96.28 319,-99 293.39,-104.13 265.32,-109.12 240.02,-113.38"/>
<polygon fill="black" stroke="black" points="239.39,-109.94 230.1,-115.04 240.54,-116.84 239.39,-109.94"/>
</g>
<!-- aws_key_pair.terraform_key -->
<g id="node3" class="node">
<title>aws_key_pair.terraform_key</title>
<polygon fill="none" stroke="black" points="263,-90 56,-90 56,-54 263,-54 263,-90"/>
<text text-anchor="middle" x="159.5" y="-68.3" font-family="sans-serif" font-size="14.00">aws_key_pair.terraform_key</text>
</g>
<!-- aws_instance.newvm&#45;&gt;aws_key_pair.terraform_key -->
<g id="edge2" class="edge">
<title>aws_instance.newvm&#45;&gt;aws_key_pair.terraform_key</title>
<path fill="none" stroke="black" d="M354.83,-72C329.24,-72 300.51,-72 273.14,-72"/>
<polygon fill="black" stroke="black" points="273.12,-68.5 263.12,-72 273.12,-75.5 273.12,-68.5"/>
</g>
<!-- aws_security_group.terraformsecuritygroup -->
<g id="node4" class="node">
<title>aws_security_group.terraformsecuritygroup</title>
<polygon fill="none" stroke="black" points="319,-36 0,-36 0,0 319,0 319,-36"/>
<text text-anchor="middle" x="159.5" y="-14.3" font-family="sans-serif" font-size="14.00">aws_security_group.terraformsecuritygroup</text>
</g>
<!-- aws_instance.newvm&#45;&gt;aws_security_group.terraformsecuritygroup -->
<g id="edge3" class="edge">
<title>aws_instance.newvm&#45;&gt;aws_security_group.terraformsecuritygroup</title>
<path fill="none" stroke="black" d="M360.93,-54C347.02,-50.85 332.59,-47.72 319,-45 306.91,-42.58 294.26,-40.19 281.63,-37.89"/>
<polygon fill="black" stroke="black" points="281.96,-34.39 271.5,-36.07 280.72,-41.28 281.96,-34.39"/>
</g>
</g>
</svg>
